<svg xmlns="http://www.w3.org/2000/svg" viewBox="0 0 1600 900" role="img" aria-labelledby="title desc">
<title id="title">LUMINA dimensions</title>
<desc id="desc">Dimensioned top, front and side views of the Geneva Lux luminous tunnel structure.</desc>
<defs>
  <marker id="arrow" markerWidth="8" markerHeight="8" refX="4" refY="4" orient="auto" markerUnits="strokeWidth"><path d="M8,4 L0,0 L0,8 Z" fill="#f3f3f0"/></marker>
</defs>
<rect width="1600" height="900" fill="#050505"/>
<g fill="none" stroke="#f3f3f0" stroke-width="2.1" vector-effect="non-scaling-stroke">
  <rect x="55" y="55" width="1490" height="790" opacity=".65"/>
  <line x1="800" y1="25" x2="800" y2="80" opacity=".7"/>
  <line x1="25" y1="455" x2="88" y2="455" opacity=".7"/>
  <line x1="1512" y1="455" x2="1575" y2="455" opacity=".7"/>
  <g id="top-view">
    <rect x="160" y="145" width="975" height="165"/>
    <line x1="282" y1="145" x2="282" y2="310"/><line x1="404" y1="145" x2="404" y2="310"/>
    <line x1="526" y1="145" x2="526" y2="310"/><line x1="648" y1="145" x2="648" y2="310"/>
    <line x1="770" y1="145" x2="770" y2="310"/><line x1="892" y1="145" x2="892" y2="310"/>
    <line x1="1014" y1="145" x2="1014" y2="310"/>
    <path d="M160 145 l16 16 h90 l16-16 M282 145 l16 16 h90 l16-16 M404 145 l16 16 h90 l16-16 M526 145 l16 16 h90 l16-16 M648 145 l16 16 h90 l16-16 M770 145 l16 16 h90 l16-16 M892 145 l16 16 h90 l16-16 M1014 145 l16 16 h89 l16-16" opacity=".8"/>
    <path d="M160 310 l16-16 h90 l16 16 M282 310 l16-16 h90 l16 16 M404 310 l16-16 h90 l16 16 M526 310 l16-16 h90 l16 16 M648 310 l16-16 h90 l16 16 M770 310 l16-16 h90 l16 16 M892 310 l16-16 h90 l16 16 M1014 310 l16-16 h89 l16 16" opacity=".8"/>
  </g>
  <g id="front-view">
    <rect x="160" y="430" width="975" height="245"/>
    <line x1="160" y1="552.5" x2="1135" y2="552.5"/>
    <line x1="282" y1="430" x2="282" y2="675"/><line x1="404" y1="430" x2="404" y2="675"/>
    <line x1="526" y1="430" x2="526" y2="675"/><line x1="648" y1="430" x2="648" y2="675"/>
    <line x1="770" y1="430" x2="770" y2="675"/><line x1="892" y1="430" x2="892" y2="675"/>
    <line x1="1014" y1="430" x2="1014" y2="675"/>
  </g>
  <g id="side-view">
    <line x1="1285" y1="430" x2="1490" y2="430"/>
    <line x1="1285" y1="675" x2="1490" y2="675"/>
    <line x1="1490" y1="430" x2="1490" y2="675"/>
    <line x1="1470" y1="430" x2="1490" y2="450"/><line x1="1470" y1="675" x2="1490" y2="655"/>
  </g>
  <g id="dimensions" opacity=".9">
    <line x1="160" y1="365" x2="1135" y2="365" marker-start="url(#arrow)" marker-end="url(#arrow)"/>
    <line x1="160" y1="345" x2="160" y2="385"/><line x1="1135" y1="345" x2="1135" y2="385"/>
    <line x1="160" y1="400" x2="404" y2="400" marker-start="url(#arrow)" marker-end="url(#arrow)"/>
    <line x1="160" y1="390" x2="160" y2="415"/><line x1="404" y1="390" x2="404" y2="415"/>
    <line x1="1175" y1="430" x2="1175" y2="675" marker-start="url(#arrow)" marker-end="url(#arrow)"/>
    <line x1="1160" y1="430" x2="1192" y2="430"/><line x1="1160" y1="675" x2="1192" y2="675"/>
    <line x1="1200" y1="145" x2="1200" y2="310" marker-start="url(#arrow)" marker-end="url(#arrow)"/>
    <line x1="1185" y1="145" x2="1218" y2="145"/><line x1="1185" y1="310" x2="1218" y2="310"/>
    <line x1="1285" y1="735" x2="1490" y2="735" marker-start="url(#arrow)" marker-end="url(#arrow)"/>
    <line x1="1285" y1="718" x2="1285" y2="752"/><line x1="1490" y1="718" x2="1490" y2="752"/>
    <line x1="1285" y1="395" x2="1490" y2="395" marker-start="url(#arrow)" marker-end="url(#arrow)"/>
  </g>
</g>
<g fill="#f3f3f0" font-family="Arial,Helvetica,sans-serif" font-size="25" text-anchor="middle">
  <text x="647" y="355">12050</text>
  <text x="282" y="392">3000</text>
  <text x="1197" y="560" transform="rotate(-90 1197 560)">2553</text>
  <text x="1224" y="235" transform="rotate(-90 1224 235)">2235</text>
  <text x="1388" y="725">2385</text>
  <text x="1388" y="385">50</text>
</g>
<g fill="#9a9a96" font-family="Arial,Helvetica,sans-serif" font-size="18" letter-spacing="2">
  <text x="70" y="822">02 / DIMENSIONS</text>
  <text x="1260" y="822">GENEVA LUX / LUMINA</text>
</g>
</svg>